<svg xmlns="http://www.w3.org/2000/svg" viewBox="0 0 800 800">
  <defs>
    <linearGradient id="bg" x1="0" x2="1" y1="0" y2="1">
      <stop offset="0" stop-color="#020409"/>
      <stop offset=".52" stop-color="#04101f"/>
      <stop offset="1" stop-color="#020409"/>
    </linearGradient>
    <linearGradient id="edge" x1="0" x2="1" y1="0" y2="1">
      <stop offset="0" stop-color="#64cfff"/>
      <stop offset=".52" stop-color="#0b62ff"/>
      <stop offset="1" stop-color="#151038"/>
    </linearGradient>
    <filter id="glow">
      <feGaussianBlur stdDeviation="5" result="blur"/>
      <feMerge>
        <feMergeNode in="blur"/>
        <feMergeNode in="SourceGraphic"/>
      </feMerge>
    </filter>
  </defs>
  <rect width="800" height="800" fill="url(#bg)"/>
  <g fill="#07182b" stroke="url(#edge)" stroke-width="5" filter="url(#glow)">
    <path d="M-40 80 90 -20 220 92 218 210 80 320 -40 202z"/>
    <path d="M250 -40h195v205L332 280l-82-85z"/>
    <path d="M520 20 690 8 812 136 740 292 548 262 488 118z"/>
    <path d="M64 356 244 210 442 410 332 548 112 490z"/>
    <path d="M460 292h170l150 155-110 150-254-40-85-115z"/>
    <path d="M-70 555 115 510 270 660 205 842H-40z"/>
    <path d="M332 610 520 460 732 666 646 850H404z"/>
  </g>
  <path d="M-20 714 810 -16" stroke="#56c7ff" stroke-width="2" opacity=".45"/>
  <path d="M102 806 800 148" stroke="#5ad8ff" stroke-width="2" opacity=".35"/>
  <path d="M610 -40 804 156" stroke="#7f54ff" stroke-width="10" opacity=".5"/>
</svg>
